<?xml version="1.0" standalone="no"?>
<!DOCTYPE svg PUBLIC "-//W3C//DTD SVG 20010904//EN"
 "http://www.w3.org/TR/2001/REC-SVG-20010904/DTD/svg10.dtd">
<svg version="1.0" xmlns="http://www.w3.org/2000/svg"
 width="1151.000000pt" height="1151.000000pt" viewBox="0 0 1151.000000 1151.000000"
 preserveAspectRatio="xMidYMid meet">
<metadata>
Created by potrace 1.14, written by Peter Selinger 2001-2017
</metadata>
<g transform="translate(0.000000,1151.000000) scale(0.100000,-0.100000)"
fill="#000000" stroke="none">
<path d="M5857 10703 c-4 -6 -29 -9 -57 -8 -27 1 -50 -1 -50 -4 0 -3 -21 -6
-48 -7 -26 -1 -69 -5 -97 -9 -27 -4 -60 -8 -72 -7 -13 0 -23 -3 -23 -7 0 -3
-12 -7 -27 -7 -42 -3 -115 -15 -141 -25 -13 -5 -27 -7 -32 -4 -5 3 -11 1 -14
-4 -4 -5 -14 -8 -24 -7 -9 2 -19 -1 -22 -5 -3 -5 -20 -9 -38 -11 -18 -1 -32
-5 -32 -8 0 -3 -12 -7 -27 -8 -15 -1 -31 -6 -36 -11 -5 -5 -16 -7 -23 -4 -8 3
-14 0 -14 -7 0 -6 -4 -9 -9 -6 -4 3 -31 -3 -60 -14 -28 -10 -55 -19 -59 -20
-9 -3 -53 -19 -72 -27 -8 -3 -21 -7 -29 -9 -7 -1 -18 -7 -24 -13 -6 -6 -17
-11 -25 -11 -7 0 -48 -16 -90 -37 -42 -20 -81 -35 -86 -34 -5 1 -12 -2 -15 -7
-7 -11 -103 -56 -113 -54 -5 1 -8 -2 -8 -6 0 -5 -16 -14 -35 -22 -19 -8 -35
-17 -35 -21 0 -4 -12 -12 -27 -18 -41 -16 -115 -59 -139 -80 -12 -11 -31 -22
-43 -26 -12 -3 -21 -11 -21 -16 0 -6 -4 -7 -10 -4 -5 3 -10 1 -10 -4 0 -6 -5
-11 -10 -11 -6 0 -20 -9 -32 -20 -12 -11 -40 -32 -62 -47 -23 -16 -46 -32 -52
-38 -6 -5 -22 -17 -34 -25 -13 -8 -38 -29 -57 -47 -18 -17 -33 -28 -33 -25 0
4 -7 -2 -15 -12 -8 -11 -15 -17 -15 -14 0 10 -102 -84 -245 -226 -77 -77 -143
-139 -147 -138 -5 1 -8 -4 -8 -10 0 -7 -15 -29 -33 -48 -18 -19 -52 -60 -77
-90 -25 -30 -49 -60 -55 -67 -21 -25 -31 -39 -60 -78 -17 -22 -34 -43 -40 -47
-5 -4 -7 -8 -2 -8 4 0 -1 -9 -10 -19 -28 -31 -38 -44 -58 -78 -11 -18 -23 -33
-27 -33 -4 0 -8 -7 -8 -15 0 -8 -3 -15 -7 -15 -5 0 -17 -18 -27 -40 -11 -22
-23 -40 -28 -40 -5 0 -7 -4 -4 -9 3 -5 -1 -11 -9 -15 -8 -3 -15 -12 -15 -21 0
-8 -3 -15 -8 -15 -4 0 -16 -20 -27 -45 -11 -25 -23 -45 -27 -45 -5 0 -8 -7 -8
-15 0 -8 -5 -15 -11 -15 -5 0 -8 -4 -5 -9 4 -5 3 -11 -1 -13 -10 -4 -57 -90
-130 -238 -32 -63 -60 -116 -65 -118 -4 -2 -4 -10 -1 -18 3 -8 0 -14 -6 -14
-6 0 -10 -3 -9 -7 1 -5 -4 -19 -9 -33 -6 -14 -27 -62 -47 -107 -19 -46 -33
-83 -29 -83 3 0 1 -6 -5 -12 -11 -14 -36 -81 -78 -208 -14 -41 -29 -84 -34
-95 -13 -29 -46 -134 -55 -175 -4 -19 -12 -41 -17 -47 -6 -7 -8 -13 -4 -13 3
0 -1 -17 -9 -37 -8 -21 -26 -83 -40 -138 -15 -55 -28 -104 -29 -110 -2 -5 -6
-27 -11 -48 -4 -20 -11 -40 -16 -43 -5 -3 -7 -9 -4 -14 3 -5 1 -19 -4 -33 -5
-13 -12 -37 -15 -53 -2 -16 -7 -38 -10 -49 -12 -49 -48 -207 -62 -275 -18 -86
-22 -105 -24 -105 -1 0 -3 -13 -5 -30 -3 -28 -7 -53 -20 -115 -3 -14 -12 -63
-20 -110 -21 -124 -23 -135 -25 -135 -1 0 -9 -49 -15 -100 -2 -16 -4 -30 -5
-30 -1 0 -3 -9 -4 -20 -2 -11 -6 -42 -11 -70 -4 -27 -9 -63 -10 -80 -2 -16 -6
-44 -9 -61 -6 -31 -9 -58 -21 -154 -3 -30 -8 -62 -10 -70 -2 -8 -7 -44 -10
-80 -3 -36 -9 -83 -12 -105 -4 -22 -6 -50 -6 -62 1 -13 -2 -23 -6 -23 -3 0 -7
-26 -7 -58 -1 -51 -7 -116 -19 -222 -2 -19 -7 -69 -10 -110 -3 -41 -8 -95 -10
-120 -3 -41 -6 -83 -20 -290 -5 -71 -16 -276 -19 -355 -1 -28 -4 -55 -8 -60
-3 -6 -2 -19 2 -30 4 -11 4 -30 -1 -43 -5 -14 -5 -22 2 -22 6 0 7 -5 3 -12 -4
-7 -9 -89 -11 -183 -1 -93 -3 -170 -4 -170 -5 0 -3 -607 3 -627 4 -17 3 -28
-3 -28 -6 0 -7 -5 -4 -11 4 -5 8 -77 9 -158 2 -81 6 -153 10 -159 4 -7 2 -12
-5 -12 -8 0 -8 -4 -1 -13 7 -8 7 -18 2 -27 -5 -8 -6 -19 -2 -25 4 -5 7 -35 8
-65 3 -98 21 -283 35 -349 8 -39 15 -84 21 -138 1 -7 4 -13 8 -13 4 0 6 -10 5
-22 -1 -13 1 -30 6 -39 4 -9 10 -27 13 -40 10 -50 15 -67 46 -159 18 -52 41
-115 52 -140 39 -88 103 -215 110 -218 5 -2 8 -8 8 -13 0 -12 101 -163 112
-167 4 -2 8 -8 8 -13 0 -11 11 -24 52 -68 15 -16 24 -31 21 -35 -4 -3 1 -6 10
-6 9 0 17 -4 17 -9 0 -11 110 -121 153 -154 16 -12 40 -33 53 -47 13 -14 24
-20 24 -15 0 5 7 -1 16 -13 8 -12 20 -20 25 -17 5 4 9 1 9 -5 0 -6 8 -14 18
-17 9 -4 22 -11 27 -15 25 -21 91 -61 148 -90 34 -18 63 -35 65 -39 2 -5 10
-5 18 -2 8 3 14 0 14 -6 0 -6 5 -11 10 -11 6 0 32 -9 58 -21 75 -33 134 -56
167 -64 11 -3 54 -14 95 -25 41 -12 91 -23 110 -26 19 -3 44 -8 55 -11 11 -3
34 -7 50 -9 17 -1 53 -5 80 -9 28 -4 62 -8 77 -9 15 0 30 -5 34 -9 4 -4 13 -2
21 4 7 6 13 7 13 2 0 -5 15 -8 33 -8 17 0 42 -3 55 -7 15 -5 22 -4 22 5 0 7 3
8 8 2 11 -16 46 -19 36 -3 -6 10 -4 10 9 -1 14 -11 60 -12 239 -8 123 3 234 8
248 11 13 3 39 7 57 8 18 1 33 6 33 11 0 5 6 4 14 -2 9 -8 16 -8 20 -2 4 5 14
9 24 9 9 0 33 3 52 7 19 4 44 9 55 10 11 2 20 4 20 5 0 1 11 4 25 6 14 3 72
18 130 35 58 17 112 32 120 34 8 2 16 4 18 5 1 2 5 3 10 5 4 1 21 7 37 14 17
7 31 12 33 12 1 -1 16 6 32 14 16 8 32 15 35 14 12 -2 254 115 298 144 15 10
27 15 27 10 0 -4 4 -3 8 2 4 6 17 16 30 23 55 31 67 38 86 55 11 9 24 17 28
17 9 0 82 46 111 70 10 8 20 14 22 13 3 -2 14 5 24 15 25 22 38 32 81 62 19
13 37 27 40 30 3 3 23 19 45 36 52 38 92 71 132 110 18 18 33 30 33 27 0 -5
79 67 131 119 21 21 42 38 47 38 5 0 15 11 22 25 7 14 15 23 17 21 2 -2 38 33
81 77 42 44 95 99 117 122 22 23 67 72 100 110 33 38 68 75 77 84 9 8 15 18
12 22 -2 4 5 10 16 14 11 3 20 10 20 15 0 5 12 23 28 39 15 16 32 36 37 43 6
7 39 49 75 93 36 43 72 88 80 98 8 11 27 33 43 50 15 18 27 35 27 39 0 4 13
21 30 38 16 16 26 30 22 30 -4 0 -2 4 4 8 5 4 37 43 69 87 33 44 65 86 72 93
7 7 13 17 13 21 0 4 8 16 18 27 10 10 44 57 77 104 33 47 67 94 77 104 10 11
18 25 18 31 0 7 9 20 20 30 11 10 20 24 20 31 0 7 3 14 8 16 11 5 112 156 112
168 0 5 3 10 8 10 4 0 23 26 42 58 18 31 40 63 47 70 7 8 11 18 8 23 -4 5 -2
9 3 9 9 0 72 95 72 110 0 5 4 10 8 12 4 2 25 33 47 71 22 37 43 67 48 67 4 0
6 4 3 8 -3 5 4 19 15 30 11 12 17 22 13 22 -4 0 1 9 11 20 10 11 15 20 11 20
-4 0 2 10 14 22 11 12 20 28 20 35 0 7 5 13 11 13 5 0 8 4 5 8 -3 5 3 18 13
29 10 11 22 29 25 41 4 12 12 22 17 22 6 0 8 4 4 9 -3 5 1 16 9 23 7 8 16 24
20 36 4 12 13 28 19 35 7 7 19 26 28 42 43 83 65 121 73 127 5 3 11 13 12 22
1 8 23 51 48 96 25 45 46 84 46 87 0 3 9 18 21 34 11 16 17 29 13 29 -4 0 0 8
8 18 8 9 41 69 73 132 32 63 67 130 77 148 9 17 15 32 12 32 -3 0 2 7 10 16 9
8 14 19 11 24 -3 5 -2 10 2 12 10 4 86 154 83 164 -1 4 2 10 7 13 10 8 53 95
53 109 0 6 5 12 11 14 5 2 11 10 13 18 3 22 69 154 81 162 6 4 7 8 2 8 -4 0 2
17 13 37 11 21 20 43 20 50 0 6 5 13 10 15 6 2 12 13 13 26 0 12 4 22 7 22 3
0 16 24 29 53 13 28 36 78 52 110 16 31 29 59 29 62 1 2 12 30 25 60 14 31 25
60 25 65 0 6 5 10 10 10 6 0 10 5 10 12 0 6 12 36 27 67 15 31 27 58 28 61 0
3 10 26 22 52 12 26 34 76 49 110 15 35 34 70 41 79 7 9 10 18 7 21 -3 4 2 18
11 32 10 14 13 26 9 26 -5 0 -3 4 4 9 7 4 14 14 16 22 1 8 14 40 29 73 15 32
27 65 27 72 0 8 5 14 10 14 6 0 10 6 10 13 0 8 6 27 14 43 36 75 65 140 68
154 2 8 7 18 11 21 5 3 10 12 11 20 2 8 16 43 33 79 17 36 37 80 44 98 8 17
17 32 21 32 5 0 8 6 8 13 0 7 20 54 45 105 25 50 45 96 45 102 0 5 4 10 10 10
5 0 9 3 8 8 -1 4 34 79 77 167 44 88 78 163 77 168 -1 4 1 7 6 7 4 0 13 15 20
33 24 57 77 162 85 168 5 3 8 9 8 13 -1 3 6 23 15 44 10 20 18 39 18 42 1 3
13 28 28 57 14 28 24 54 21 57 -3 3 1 8 10 12 9 3 14 11 11 19 -3 7 2 20 11
28 8 9 15 20 14 24 -1 4 14 43 34 86 21 43 37 85 37 93 0 7 3 14 8 14 4 0 16
24 26 53 18 51 29 80 56 142 7 17 14 35 14 40 1 6 9 28 19 49 10 22 20 51 24
65 3 14 9 31 14 36 4 6 8 13 8 18 2 19 14 63 21 72 4 6 11 24 15 40 5 17 10
37 12 45 3 8 5 22 7 30 1 8 7 24 13 35 6 11 11 25 12 30 1 18 24 110 30 120 3
6 6 19 8 30 2 21 10 58 13 63 2 1 3 10 5 20 1 9 5 24 8 32 4 8 9 33 11 55 2
22 7 47 10 55 6 16 12 63 23 175 12 126 7 305 -12 400 -4 17 -7 38 -8 48 -1 9
-6 17 -11 17 -5 0 -7 3 -4 6 4 3 2 20 -3 37 -6 18 -12 39 -14 47 -5 20 -42 98
-61 130 -8 14 -18 33 -21 43 -3 9 -9 17 -14 17 -5 0 -9 6 -9 14 0 23 -161 179
-235 227 -69 46 -212 119 -240 123 -8 1 -18 5 -21 9 -4 4 -16 7 -26 7 -10 0
-18 4 -18 8 0 4 -12 9 -26 10 -14 1 -31 5 -37 9 -7 4 -16 8 -22 9 -5 1 -23 5
-40 9 -16 4 -45 9 -62 12 -18 3 -33 8 -33 12 0 3 -10 7 -22 7 -74 5 -98 8 -98
13 0 3 -15 7 -33 8 -46 2 -132 11 -132 13 0 1 -37 3 -82 5 -45 2 -86 6 -92 10
-6 3 -11 1 -11 -5 0 -6 -5 -8 -12 -3 -18 10 -89 11 -112 0 -11 -6 -16 -5 -13
0 4 6 -17 9 -51 7 -31 -2 -57 -4 -57 -4 0 -1 -25 -2 -56 -4 -31 -2 -61 -6 -67
-10 -6 -3 -13 -2 -17 4 -4 6 -12 7 -18 3 -12 -7 -66 -15 -124 -17 -18 0 -33
-4 -33 -8 0 -3 -8 -5 -17 -4 -9 2 -57 -6 -107 -16 -50 -10 -107 -21 -126 -24
-19 -3 -38 -11 -42 -18 -6 -8 -8 -7 -8 2 0 10 -5 10 -21 2 -11 -6 -28 -13 -37
-15 -9 -1 -44 -10 -77 -19 -33 -9 -67 -19 -75 -21 -71 -18 -196 -61 -202 -70
-4 -5 -8 -7 -8 -3 0 4 -19 -1 -42 -11 -24 -10 -49 -16 -55 -14 -7 3 -13 0 -13
-5 0 -5 -20 -15 -45 -22 -25 -7 -45 -17 -45 -22 0 -5 -4 -7 -9 -3 -5 3 -12 1
-16 -5 -4 -6 -10 -8 -15 -5 -5 3 -11 1 -15 -5 -4 -6 -11 -8 -16 -5 -5 4 -9 1
-9 -4 0 -6 -6 -11 -13 -11 -12 0 -135 -55 -181 -81 -14 -8 -17 -8 -11 3 4 8 1
7 -7 -2 -17 -19 -123 -70 -146 -70 -15 0 -15 2 -2 10 10 6 11 10 3 10 -7 0
-13 8 -13 18 0 10 -9 37 -20 60 -11 22 -20 46 -20 52 0 5 -5 10 -11 10 -5 0
-8 4 -5 8 3 5 -4 15 -15 22 -10 8 -19 21 -19 29 0 17 -24 43 -131 146 -9 8
-37 26 -62 39 -26 12 -44 26 -40 30 3 3 -4 6 -16 6 -12 0 -33 8 -48 17 -14 10
-35 19 -47 20 -12 2 -30 7 -41 12 -19 9 -65 20 -92 23 -7 1 -13 4 -13 8 0 3
-16 6 -35 5 -20 -1 -38 1 -40 5 -2 4 -23 8 -47 9 -24 1 -59 4 -78 6 -140 17
-450 24 -450 11 0 -5 -6 -3 -14 3 -11 9 -16 9 -21 0 -6 -8 -9 -8 -15 1 -4 7
-10 8 -13 3z"/>
</g>
</svg>
