<!-- icon666.com - MILLIONS vector ICONS FREE -->
<svg enable-background="new 0 0 32 32" viewBox="0 0 32 32" xmlns="http://www.w3.org/2000/svg">
  <g>
    <path d="m16 .5c-8.54687 0-15.5 6.95313-15.5 15.5s6.95313 15.5 15.5 15.5 15.5-6.95312 15.5-15.5-6.95312-15.5-15.5-15.5zm0 28c-6.89258 0-12.5-5.60742-12.5-12.5s5.60742-12.5 12.5-12.5 12.5 5.60742 12.5 12.5-5.60742 12.5-12.5 12.5z"></path>
    <path d="m17.5 14.5v-7.20605c0-.82861-.67139-1.5-1.5-1.5s-1.5.67139-1.5 1.5v7.20605h-7.20605c-.82861 0-1.5.67139-1.5 1.5s.67139 1.5 1.5 1.5h7.20605v7.20605c0 .82861.67139 1.5 1.5 1.5s1.5-.67139 1.5-1.5v-7.20605h7.20605c.82861 0 1.5-.67139 1.5-1.5s-.67139-1.5-1.5-1.5z"></path>
  </g>
</svg>
